HIERARCHY
ROOT Hips
{
	OFFSET -0.179506 -22.333345 2.821913
	CHANNELS 6 Xposition Yposition Zposition Zrotation Yrotation Xrotation 
	JOINT LeftUpLeg
	{
		OFFSET 6.951974 -9.140623 -0.681533
		CHANNELS 3 Zrotation Yrotation Xrotation
		JOINT LeftLeg
		{
			OFFSET 3.427654 -37.519855 -0.449580
			CHANNELS 3 Zrotation Yrotation Xrotation
			JOINT LeftFoot
			{
				OFFSET -1.359570 -39.796059 -4.369333
				CHANNELS 3 Zrotation Yrotation Xrotation
				JOINT LeftToe
				{
					OFFSET 2.635814 -5.579078 11.928840
					CHANNELS 3 Zrotation Yrotation Xrotation
					End Site
					{
						OFFSET 0.000000 0.000000 0.000000
					}
				}
			}
		}
	}
	JOINT RightUpLeg
	{
		OFFSET -6.767048 -9.052170 -0.431982
		CHANNELS 3 Zrotation Yrotation Xrotation
		JOINT RightLeg
		{
			OFFSET -3.829005 -38.256897 -0.885003
			CHANNELS 3 Zrotation Yrotation Xrotation
			JOINT RightFoot
			{
				OFFSET 1.577377 -39.841461 -4.231180
				CHANNELS 3 Zrotation Yrotation Xrotation
				JOINT RightToe
				{
					OFFSET -2.537174 -4.814398 12.334795
					CHANNELS 3 Zrotation Yrotation Xrotation
					End Site
					{
						OFFSET 0.000000 0.000000 0.000000
					}
				}
			}
		}
	}
	JOINT Spine
	{
		OFFSET -0.253288 10.896323 -2.669631
		CHANNELS 3 Zrotation Yrotation Xrotation
		JOINT Spine1
		{
			OFFSET 0.548704 13.518043 0.109247
			CHANNELS 3 Zrotation Yrotation Xrotation
			JOINT Spine2
			{
				OFFSET 0.145701 5.292222 2.542457
				CHANNELS 3 Zrotation Yrotation Xrotation
				JOINT Neck
				{
					OFFSET -0.277840 21.387037 -4.285703
					CHANNELS 3 Zrotation Yrotation Xrotation
					JOINT Head
					{
						OFFSET 0.515184 6.496960 5.134897
						CHANNELS 3 Zrotation Yrotation Xrotation
						End Site
						{
							OFFSET 0.000000 0.000000 0.000000
						}
					}
				}
				JOINT LeftShoulder
				{
					OFFSET 7.884473 12.174932 -3.408961
					CHANNELS 3 Zrotation Yrotation Xrotation
					JOINT LeftArm
					{
						OFFSET 9.097692 3.046888 -0.886815
						CHANNELS 3 Zrotation Yrotation Xrotation
						JOINT LeftForeArm
						{
							OFFSET 25.961220 -1.277207 -2.745643
							CHANNELS 3 Zrotation Yrotation Xrotation
							JOINT LeftHand
							{
								OFFSET 24.923361 0.898606 -0.117091
								CHANNELS 3 Zrotation Yrotation Xrotation
								End Site
								{
									OFFSET 0.000000 0.000000 0.000000
								}
							}
						}
					}
				}
				JOINT RightShoulder
				{
					OFFSET -8.175920 11.883285 -3.861528
					CHANNELS 3 Zrotation Yrotation Xrotation
					JOINT RightArm
					{
						OFFSET -9.601238 3.255117 -0.914307
						CHANNELS 3 Zrotation Yrotation Xrotation
						JOINT RightForeArm
						{
							OFFSET -25.374195 -1.332924 -2.140099
							CHANNELS 3 Zrotation Yrotation Xrotation
							JOINT RightHand
							{
								OFFSET -25.529810 0.777228 -0.555919
								CHANNELS 3 Zrotation Yrotation Xrotation
								End Site
								{
									OFFSET 0.000000 0.000000 0.000000
								}
							}
						}
					}
				}
			}
		}
	}
}
MOTION
Frames: 16
Frame Time: 0.033333
9.464982 -82.018288 91.192078 -93.931053 1.650598 85.316483 14.728097 8.935117 2.121680 -4.567921 1.129770 4.339444 -2.093583 7.678595 -8.834722 nan nan nan -11.215390 -16.104117 6.138781 5.263098 -10.434236 1.126272 6.096385 -12.248320 -5.340357 nan nan nan 0.591599 0.858857 5.152272 3.968605 -2.450264 4.973774 4.686706 -0.119321 -4.349670 -6.665526 -42.025939 14.537368 7.302486 -19.875992 6.099584 -7.899678 1.783336 1.353673 -53.181703 -21.394731 13.760624 90.703188 -71.166074 -93.290410 11.629768 -4.792017 -76.190117 -2.500317 2.810643 -10.593511 14.220514 2.683688 -18.569062 -38.392262 29.969644 -70.136127 47.586296 18.715776 -41.941444 
9.495555 -81.994606 91.186073 -93.849643 1.664664 85.417393 14.724840 8.802642 1.954335 -4.582027 1.126637 4.385306 -2.104351 7.739236 -8.824790 nan nan nan -11.182101 -16.221537 5.883124 5.230539 -10.570875 1.449925 6.474147 -12.177753 -5.445058 nan nan nan 0.527021 0.884145 5.025639 3.973835 -2.518943 5.044573 4.694342 -0.106948 -4.398583 -6.695303 -41.885934 14.841295 7.437986 -20.028163 6.044570 -7.735235 1.760738 1.332159 -53.464054 -21.404741 13.768308 90.396898 -71.164626 -92.868482 11.553345 -4.787795 -76.092942 -2.515235 2.694691 -10.680743 14.472049 2.779347 -18.677867 -37.710436 29.349456 -68.668218 47.289166 17.105797 -40.821052 
9.535161 -81.968788 91.187386 -93.748445 1.685461 85.503526 14.739480 8.718075 1.782078 -4.610441 1.044089 4.462244 -2.080515 7.844087 -8.864325 nan nan nan -11.100138 -16.285465 5.702294 5.172486 -10.594125 1.619627 6.428343 -12.192446 -5.477403 nan nan nan 0.465261 0.887390 4.989294 3.969795 -2.542618 4.985700 4.727564 -0.102946 -4.386873 -6.737247 -41.812654 15.132564 7.585316 -20.079999 5.980101 -7.657256 1.724412 1.307857 -53.525720 -21.443401 13.794455 90.356753 -71.245756 -92.796705 11.596672 -4.502893 -76.062016 -2.496668 2.595641 -10.650316 14.580037 2.842313 -18.867983 -37.044000 28.620787 -67.328253 46.997292 15.148016 -39.574293 
9.556814 -81.943771 91.192062 -93.621954 1.723856 85.520997 14.775438 8.669103 1.689975 -4.604936 0.975425 4.511500 -2.160620 7.866402 -8.927338 nan nan nan -10.984306 -16.283853 5.673045 5.068936 -10.669323 1.652316 6.403266 -12.261702 -5.457216 nan nan nan 0.447750 0.862548 5.056620 3.943700 -2.584336 4.876584 4.760210 -0.065066 -4.309727 -6.716317 -41.736280 15.376461 7.855460 -20.096298 5.767255 -7.653971 1.674783 1.257254 -53.564348 -21.556914 13.782921 90.258720 -71.306125 -92.655660 11.380565 -4.351546 -76.096358 -2.517530 2.475575 -10.602665 14.636543 2.883996 -19.098501 -36.244562 27.957635 -66.054811 46.055776 13.296214 -38.483225 
9.560996 -81.913414 91.197273 -93.459180 1.765105 85.516097 14.827912 8.650283 1.626166 -4.621027 0.890741 4.545790 -2.253182 7.877163 -8.939404 nan nan nan -10.900385 -16.271692 5.745093 5.045238 -10.757994 1.582541 6.377455 -12.419187 -5.460273 nan nan nan 0.441938 0.825863 5.114535 3.913106 -2.663629 4.816477 4.752977 -0.005215 -4.264563 -6.629333 -41.639032 15.545259 8.079478 -20.179150 5.664729 -7.651710 1.665613 1.237314 -53.500730 -21.723420 13.680046 89.914109 -71.508389 -92.319802 11.221031 -4.501366 -76.488726 -2.482611 2.376910 -10.572775 14.567460 2.923444 -19.295570 -35.393666 27.215644 -64.740531 44.849057 11.507274 -37.262395 
9.559038 -81.881798 91.197815 -93.308784 1.781874 85.532198 14.857827 8.563538 1.590603 -4.655949 0.740542 4.517818 -2.277310 7.938641 -8.912486 nan nan nan -10.857522 -16.254823 5.821559 5.083123 -10.751678 1.490084 6.332674 -12.647934 -5.524623 nan nan nan 0.410613 0.768743 5.135979 3.893423 -2.735984 4.760837 4.724431 0.031044 -4.211402 -6.511778 -41.537694 15.490135 8.057441 -20.404740 5.822992 -7.597932 1.724991 1.244803 -53.267912 -21.854396 13.575400 89.773304 -71.853431 -92.128716 11.314330 -4.664669 -77.014268 -2.400211 2.348321 -10.550698 14.360586 3.016432 -19.449210 -34.575341 26.263677 -63.375605 43.943271 9.752738 -35.814769 
9.551926 -81.858971 91.199944 -93.229385 1.778007 85.501452 14.886876 8.512473 1.645782 -4.697364 0.598249 4.465728 -2.289570 8.028913 -8.861834 nan nan nan -10.832388 -16.280095 5.897400 5.054110 -10.589776 1.472160 6.290621 -12.821705 -5.605861 nan nan nan 0.400946 0.730264 5.174626 3.862646 -2.744158 4.737999 4.673926 0.043267 -4.119657 -6.436520 -41.483224 15.298299 7.937879 -20.717825 6.092432 -7.518000 1.732989 1.233203 -52.983852 -21.968027 13.577368 89.954199 -72.107615 -92.153599 11.831963 -4.392221 -77.314751 -2.354705 2.359584 -10.658291 14.094042 3.102061 -19.575312 -33.741052 25.204366 -62.026692 43.072765 8.044406 -34.294707 
9.540358 -81.846786 91.207558 -93.178740 1.785877 85.447392 14.931988 8.467309 1.724490 -4.759088 0.460120 4.438796 -2.292364 8.182739 -8.830588 nan nan nan -10.838513 -16.338134 5.993914 5.061985 -10.423366 1.461793 6.126804 -12.881880 -5.641700 nan nan nan 0.441323 0.759651 5.138124 3.820545 -2.735239 4.807606 4.635569 0.053801 -4.007107 -6.354417 -41.435832 15.298427 8.064052 -20.852826 5.847887 -7.527927 1.689753 1.193718 -52.701318 -22.091575 13.491762 90.047320 -72.417911 -92.178420 12.336090 -4.234592 -77.709255 -2.459078 2.363882 -10.764205 13.923366 3.143837 -19.774248 -32.935435 24.148583 -60.904853 41.543806 6.279255 -32.933837 
9.545195 -81.838272 91.216202 -93.122363 1.820951 85.430361 14.984314 8.384913 1.747096 -4.807184 0.328217 4.410334 -2.221946 8.337357 -8.838813 nan nan nan -10.798122 -16.341000 6.044809 5.068495 -10.323189 1.407949 5.607554 -12.878830 -5.744468 nan nan nan 0.543664 0.732172 5.143304 3.756304 -2.725891 4.772136 4.653101 0.066959 -3.902849 -6.368176 -41.379579 15.501870 8.340966 -20.688819 5.113949 -7.585764 1.681353 1.103469 -52.512191 -22.114280 13.322114 90.124115 -72.739223 -92.289680 12.392463 -4.190313 -78.161790 -2.703709 2.397060 -10.665056 13.850393 3.240048 -20.045494 -32.276374 23.198463 -60.222835 39.476105 4.398693 -32.068919 
9.563819 -81.826447 91.224030 -93.094650 1.828210 85.428540 14.997976 8.353998 1.746849 -4.827690 0.234653 4.376523 -2.207334 8.434785 -8.821729 nan nan nan -10.732217 -16.306820 6.006123 4.978080 -10.212273 1.405893 5.092755 -12.870974 -5.883130 nan nan nan 0.667084 0.663559 5.277781 3.660813 -2.697077 4.591738 4.653648 0.056953 -3.818428 -6.420692 -41.269440 15.553162 8.504815 -20.570791 4.598758 -7.579723 1.677507 1.001976 -52.344700 -22.039275 13.210137 90.290273 -72.963274 -92.489347 12.374459 -3.962732 -78.489541 -2.858119 2.480166 -10.532460 13.669590 3.375705 -20.289891 -31.711651 22.370826 -59.726991 37.406220 2.588946 -31.218821 
9.589999 -81.813690 91.229935 -93.108827 1.787274 85.501726 14.964817 8.309098 1.664682 -4.877340 0.266965 4.351881 -2.239464 8.510376 -8.808565 nan nan nan -10.709346 -16.281142 5.806499 4.891006 -10.247211 1.577938 5.103211 -12.949094 -5.892271 nan nan nan 0.767560 0.641095 5.324810 3.557334 -2.649772 4.485341 4.593806 0.062775 -3.815148 -6.454877 -41.189895 15.540053 8.578978 -20.577166 4.276008 -7.556953 1.673758 0.947548 -52.173504 -22.050374 13.152402 90.414858 -73.146064 -92.640911 12.361782 -3.813327 -78.833381 -2.869102 2.534008 -10.503211 13.376324 3.492444 -20.417263 -31.251561 21.620630 -59.083156 35.331962 0.782457 -29.893890 
9.599606 -81.801987 91.237587 -93.186660 1.752598 85.569352 14.949238 8.248273 1.656975 -4.936450 0.384660 4.275059 -2.320095 8.521971 -8.838108 nan nan nan -10.725912 -16.299096 5.574186 4.836615 -10.420178 1.903917 5.668839 -12.937916 -5.887285 nan nan nan 0.926091 0.644430 5.285961 3.426562 -2.584416 4.584818 4.504644 0.078714 -3.941401 -6.564478 -41.136202 15.577876 8.647796 -20.571708 3.924158 -7.496718 1.563185 0.940838 -52.111675 -21.973222 13.092895 90.892504 -73.133445 -93.033159 12.047717 -3.792129 -78.689184 -3.001764 2.617755 -10.524660 13.280648 3.518085 -20.537481 -30.941773 21.057419 -58.480822 33.313355 -0.920448 -28.523563 
9.584949 -81.791595 91.245491 -93.286947 1.716775 85.568050 14.925416 8.240818 1.751591 -4.934743 0.492040 4.180271 -2.455299 8.483370 -8.837150 nan nan nan -10.749020 -16.304888 5.448274 4.743689 -10.599611 2.151719 5.993945 -12.733595 -5.908039 nan nan nan 1.081504 0.658947 5.314311 3.287639 -2.519856 4.646839 4.440446 0.069436 -4.036463 -6.606178 -40.984735 15.530960 8.692677 -20.630380 3.530001 -7.437432 1.337112 1.057132 -52.090610 -21.836384 12.978985 91.654454 -72.973467 -93.723311 11.632272 -3.766568 -78.084266 -3.187536 2.733491 -10.541931 13.238233 3.604252 -20.772473 -30.649111 20.621625 -58.071224 30.718988 -2.425228 -27.166911 
9.565261 -81.784378 91.253380 -93.341903 1.690452 85.565116 14.897869 8.240743 1.811184 -4.923413 0.518472 4.126963 -2.635774 8.552280 -8.799781 nan nan nan -10.737625 -16.276685 5.423555 4.659795 -10.647094 2.186061 6.140121 -12.639589 -5.958964 nan nan nan 1.178824 0.650252 5.365130 3.195481 -2.488721 4.592374 4.410322 0.060596 -4.033772 -6.513990 -40.816395 15.399612 8.669179 -20.742164 3.091991 -7.438106 1.287818 1.232612 -52.066109 -21.810464 12.888343 92.219951 -73.061084 -94.216568 11.900149 -3.577326 -78.581534 -3.285842 2.770464 -10.568170 13.018931 3.884097 -20.972323 -30.225770 20.171262 -57.995627 27.122566 -3.616294 -26.533524 
9.557099 -81.773170 91.271629 -93.411101 1.687984 85.505529 14.922789 8.371703 1.903790 -4.954298 0.309151 4.109616 -2.678878 8.733541 -8.788062 nan nan nan -10.765079 -16.358044 5.439590 4.668681 -10.457250 2.241990 6.232692 -12.696876 -6.117676 nan nan nan 1.279909 0.608112 5.484993 3.132154 -2.449180 4.482941 4.395933 0.124683 -3.966795 -6.459592 -40.782783 15.228224 8.561170 -20.758984 2.756597 -7.545070 1.384330 1.154525 -51.953009 -21.846872 12.925038 92.124203 -73.266578 -93.856176 14.046556 -1.962835 -78.884265 -3.325479 2.822460 -10.714378 12.735501 4.009637 -20.934985 -29.851152 19.968920 -58.228963 22.815892 -4.755215 -26.661849 
9.555296 -81.763870 91.277634 -93.466382 1.667938 85.492856 14.904231 8.319265 1.985109 -4.942843 0.336542 4.015124 -2.662805 8.820060 -8.787129 nan nan nan -10.763340 -16.319289 5.401154 4.609259 -10.464935 2.305763 6.224589 -12.668691 -6.125091 nan nan nan 1.448023 0.551126 5.540366 3.001787 -2.419479 4.408081 4.307835 0.176660 -3.904034 -6.451618 -40.635651 15.154046 8.647529 -20.828934 2.394043 -7.623354 1.468717 0.898425 -51.540471 -21.825541 12.897249 92.414247 -73.708131 -94.596429 14.050179 -1.809647 -79.050285 -3.294646 2.878684 -10.613573 12.533830 4.255568 -20.956348 -29.824643 19.720147 -58.702119 18.986244 -5.864941 -25.547309 
